<?xml version="1.0" standalone="no"?>
<!DOCTYPE svg PUBLIC "-//W3C//DTD SVG 20010904//EN"
 "http://www.w3.org/TR/2001/REC-SVG-20010904/DTD/svg10.dtd">
<svg version="1.0" xmlns="http://www.w3.org/2000/svg"
 width="4.000000pt" height="4.000000pt" viewBox="0 0 4.000000 4.000000"
 preserveAspectRatio="xMidYMid meet">

<g transform="translate(0.000000,4.000000) scale(0.100000,-0.100000)"
fill="#000000" stroke="none">
<path d="M30 110 c0 -6 20 -10 45 -10 25 0 45 4 45 8 0 4 -20 9 -45 10 -25 1
-45 -3 -45 -8z"/>
<path d="M30 80 c0 -5 9 -10 20 -10 11 0 20 5 20 10 0 6 -9 10 -20 10 -11 0
-20 -4 -20 -10z"/>
<path d="M80 80 c0 -5 11 -10 25 -10 14 0 25 5 25 10 0 6 -11 10 -25 10 -14 0
-25 -4 -25 -10z"/>
<path d="M43 53 c9 -2 25 -2 35 0 9 3 1 5 -18 5 -19 0 -27 -2 -17 -5z"/>
</g>
</svg>
