<svg width="1527" height="385" viewBox="0 0 1527 385" fill="none" xmlns="http://www.w3.org/2000/svg">
<rect y="82.9043" width="166.275" height="59.7841" rx="9.34127" fill="white"/>
<rect x="186.825" y="82.9043" width="82.2032" height="59.7841" rx="9.34127" fill="white"/>
<path d="M0 172.126C0 166.967 4.18223 162.785 9.34127 162.785H117.683C122.842 162.785 127.024 166.967 127.024 172.126V213.682C127.024 218.841 122.842 223.023 117.683 223.023H9.34126C4.18222 223.023 0 218.841 0 213.682V172.126Z" fill="white"/>
<rect x="147.977" y="162.785" width="144.048" height="60.2381" rx="9.34127" fill="white"/>
<rect y="242.667" width="187.262" height="60.2381" rx="9.34127" fill="white"/>
<path d="M411.024 303.904C408.864 303.904 406.92 303.148 405.192 301.636C403.464 300.124 402.6 298.072 402.6 295.48V85.5283C402.6 83.1523 403.464 81.2083 405.192 79.6963C406.92 77.9683 408.864 77.1043 411.024 77.1043H463.836C466.212 77.1043 468.156 77.9683 469.668 79.6963C471.396 81.2083 472.26 83.1523 472.26 85.5283V158.752H538.356V85.5283C538.356 83.1523 539.112 81.2083 540.624 79.6963C542.352 77.9683 544.404 77.1043 546.78 77.1043H599.592C601.968 77.1043 603.912 77.9683 605.424 79.6963C607.152 81.2083 608.016 83.1523 608.016 85.5283V295.48C608.016 297.856 607.152 299.908 605.424 301.636C603.912 303.148 601.968 303.904 599.592 303.904H546.78C544.404 303.904 542.352 303.148 540.624 301.636C539.112 299.908 538.356 297.856 538.356 295.48V220.312H472.26V295.48C472.26 297.856 471.396 299.908 469.668 301.636C468.156 303.148 466.212 303.904 463.836 303.904H411.024ZM636.783 303.904C634.839 303.904 633.111 303.256 631.599 301.96C630.303 300.448 629.655 298.72 629.655 296.776C629.655 295.912 629.871 295.156 630.303 294.508L704.175 87.1483C704.823 84.7723 706.227 82.5043 708.387 80.3443C710.763 78.1843 713.895 77.1043 717.783 77.1043H777.075C781.179 77.1043 784.311 78.1843 786.471 80.3443C788.631 82.5043 790.035 84.7723 790.683 87.1483L864.879 294.508C865.095 295.156 865.203 295.912 865.203 296.776C865.203 298.72 864.447 300.448 862.935 301.96C861.639 303.256 860.019 303.904 858.075 303.904H808.179C804.507 303.904 801.807 303.04 800.079 301.312C798.351 299.584 797.163 297.964 796.515 296.452L786.471 269.236H708.387L698.343 296.452C697.695 297.964 696.507 299.584 694.779 301.312C693.267 303.04 690.567 303.904 686.679 303.904H636.783ZM723.291 214.48H771.567L747.267 141.58L723.291 214.48ZM931.861 303.904C927.973 303.904 924.841 302.824 922.465 300.664C920.305 298.504 918.901 296.236 918.253 293.86L854.425 86.5003C854.209 85.6363 854.101 84.8803 854.101 84.2323C854.101 82.2883 854.749 80.6683 856.045 79.3723C857.557 77.8603 859.285 77.1043 861.229 77.1043H911.449C915.337 77.1043 918.361 78.1843 920.521 80.3443C922.681 82.5043 924.085 84.6643 924.733 86.8243L962.965 221.932L1001.2 86.8243C1001.85 84.6643 1003.25 82.5043 1005.41 80.3443C1007.57 78.1843 1010.59 77.1043 1014.48 77.1043H1064.7C1066.65 77.1043 1068.27 77.8603 1069.56 79.3723C1070.86 80.6683 1071.51 82.2883 1071.51 84.2323C1071.51 84.8803 1071.4 85.6363 1071.18 86.5003L1007.68 293.86C1007.03 296.236 1005.52 298.504 1003.14 300.664C1000.98 302.824 997.849 303.904 993.745 303.904H931.861ZM1106.48 303.904C1104.32 303.904 1102.38 303.148 1100.65 301.636C1098.92 299.908 1098.06 297.856 1098.06 295.48V85.5283C1098.06 83.1523 1098.92 81.2083 1100.65 79.6963C1102.38 77.9683 1104.32 77.1043 1106.48 77.1043H1265.24C1267.62 77.1043 1269.67 77.9683 1271.4 79.6963C1273.13 81.2083 1273.99 83.1523 1273.99 85.5283V123.76C1273.99 125.92 1273.13 127.864 1271.4 129.592C1269.67 131.32 1267.62 132.184 1265.24 132.184H1165.13V164.26H1258.12C1260.49 164.26 1262.54 165.124 1264.27 166.852C1266 168.364 1266.86 170.308 1266.86 172.684V207.676C1266.86 210.052 1266 212.104 1264.27 213.832C1262.54 215.344 1260.49 216.1 1258.12 216.1H1165.13V248.824H1267.84C1270.21 248.824 1272.26 249.688 1273.99 251.416C1275.72 253.144 1276.58 255.196 1276.58 257.572V295.48C1276.58 297.856 1275.72 299.908 1273.99 301.636C1272.26 303.148 1270.21 303.904 1267.84 303.904H1106.48ZM1318.16 303.904C1316 303.904 1314.06 303.148 1312.33 301.636C1310.6 299.908 1309.74 297.856 1309.74 295.48V85.5283C1309.74 83.1523 1310.6 81.2083 1312.33 79.6963C1314.06 77.9683 1316 77.1043 1318.16 77.1043H1361.25C1365.14 77.1043 1367.95 78.0763 1369.68 80.0203C1371.4 81.7483 1372.59 83.0443 1373.24 83.9083L1439.98 191.152V85.5283C1439.98 83.1523 1440.85 81.2083 1442.58 79.6963C1444.3 77.9683 1446.25 77.1043 1448.41 77.1043H1497.33C1499.71 77.1043 1501.65 77.9683 1503.16 79.6963C1504.89 81.2083 1505.76 83.1523 1505.76 85.5283V295.48C1505.76 297.856 1504.89 299.908 1503.16 301.636C1501.65 303.148 1499.71 303.904 1497.33 303.904H1454.56C1450.46 303.904 1447.54 303.04 1445.82 301.312C1444.09 299.368 1442.9 297.964 1442.25 297.1L1375.51 196.012V295.48C1375.51 297.856 1374.64 299.908 1372.92 301.636C1371.4 303.148 1369.46 303.904 1367.08 303.904H1318.16Z" fill="white"/>
</svg>
