<?xml version="1.0" standalone="no"?>
<!DOCTYPE svg PUBLIC "-//W3C//DTD SVG 20010904//EN"
 "http://www.w3.org/TR/2001/REC-SVG-20010904/DTD/svg10.dtd">
<svg version="1.0" xmlns="http://www.w3.org/2000/svg"
 width="160.000000pt" height="160.000000pt" viewBox="0 0 160.000000 160.000000"
 preserveAspectRatio="xMidYMid meet">

<g transform="translate(0.000000,160.000000) scale(0.100000,-0.100000)"
fill="#000000" stroke="none">
<path d="M290 1395 c-17 -21 0 -39 29 -30 22 7 28 29 11 40 -5 3 -10 0 -10 -7
0 -11 -2 -11 -9 0 -6 10 -10 10 -21 -3z"/>
<path d="M147 1343 c-4 -3 -7 -13 -7 -21 0 -12 3 -12 15 -2 8 7 15 16 15 21 0
11 -14 12 -23 2z"/>
<path d="M165 1294 l-30 -14 35 5 c19 3 39 10 44 15 15 15 -14 12 -49 -6z"/>
<path d="M746 475 c-10 -28 -7 -45 9 -45 8 0 15 -5 15 -11 0 -5 -4 -8 -9 -5
-4 3 -17 -1 -27 -9 -17 -13 -18 -14 -1 -15 9 0 17 4 17 10 0 5 7 7 16 3 15 -5
16 -1 10 33 -9 46 -21 62 -30 39z"/>
<path d="M1000 484 c0 -15 31 -74 39 -74 5 0 16 -6 23 -12 37 -35 50 -39 23
-7 -17 20 -33 34 -37 32 -4 -2 -5 3 -2 11 4 10 1 16 -10 16 -9 0 -13 6 -10 14
3 7 -2 16 -10 19 -9 4 -16 4 -16 1z"/>
<path d="M1126 347 c3 -10 9 -15 12 -12 3 3 0 11 -7 18 -10 9 -11 8 -5 -6z"/>
<path d="M730 97 c0 -8 -7 -20 -15 -27 -22 -18 -9 -30 33 -30 46 0 74 15 45
24 -11 3 -29 15 -41 27 -16 14 -22 16 -22 6z"/>
<path d="M1046 79 c-26 -31 -19 -39 34 -39 28 0 50 3 50 8 -1 4 -16 17 -34 28
-33 21 -34 21 -50 3z"/>
<path d="M516 53 l-27 -22 24 -6 c33 -9 90 -2 94 10 2 6 -12 18 -31 26 -32 15
-35 14 -60 -8z"/>
<path d="M1177 52 c-17 -19 -16 -20 14 -26 51 -10 79 -7 79 8 0 7 -10 16 -22
19 -13 2 -30 7 -39 11 -9 4 -22 -1 -32 -12z"/>
</g>
</svg>
